<svg width="983" height="1157" viewBox="0 0 983 1157" fill="none" xmlns="http://www.w3.org/2000/svg">
<path d="M9.23952 97.2849L82.6476 739.935C86.7942 776.237 133.435 788.433 154.822 758.808L420.321 391.019C432.741 373.814 429.565 349.905 413.085 336.539L74.1771 61.6782C46.3529 39.1122 5.17381 61.6916 9.23952 97.2849Z" fill="#41C9E2"/>
<path d="M962.227 498.102L509.91 1109.36C491.546 1134.18 455.301 1136.59 433.814 1114.42L95.8439 765.722C78.4338 747.76 76.9779 719.695 92.4358 700.027L591.243 65.3737C611.282 39.8768 649.917 39.9078 669.915 65.4368L961.395 437.527C975.265 455.233 975.606 480.022 962.227 498.102Z" fill="#008DDA"/>
</svg>
